<svg xmlns="http://www.w3.org/2000/svg" xmlns:xlink="http://www.w3.org/1999/xlink" width="82.2" height="105.2" viewBox="0 0 82.2 105.2">
  <defs>
    <clipPath id="clip-path">
      <rect x="41" y="30" width="82.2" height="105.2" fill="none"/>
    </clipPath>
    <clipPath id="clip-path-2">
      <rect id="Rectangle_20" data-name="Rectangle 20" width="163.2" height="163.2" fill="#fff8ea"/>
    </clipPath>
  </defs>
  <g id="Scroll_Group_17" data-name="Scroll Group 17" transform="translate(-41 -30)" clip-path="url(#clip-path)" style="isolation: isolate">
    <g id="Group_49" data-name="Group 49" style="isolation: isolate">
      <g id="Group_48" data-name="Group 48" clip-path="url(#clip-path-2)">
        <path id="Path_113" data-name="Path 113" d="M125.812,134.378H104.181a1.482,1.482,0,0,1-1.5-1.482,34.874,34.874,0,0,0-2.267-12.19,83.026,83.026,0,0,0-4.854-10.262c-2.838-5.318-5.39-10.084-5.39-15.242v-.285A24.868,24.868,0,0,1,115.032,69.59a.337.337,0,0,1,.142.018h.089a24.906,24.906,0,0,1,17.651,7.62A25.461,25.461,0,0,1,139.823,95.2c0,5.159-2.553,9.924-5.372,15.242-3.355,6.282-7.139,13.35-7.139,22.453a1.482,1.482,0,0,1-1.5,1.482m-20.686,5.39a1.5,1.5,0,1,1,0-3h19.74a1.5,1.5,0,1,1,0,3ZM112,109.855h6v-2.088a1.49,1.49,0,1,1,2.981,0V131.4h3.373c.375-9.084,4.123-16.1,7.461-22.363,2.641-4.944,5.033-9.406,5.033-13.832a22.488,22.488,0,0,0-6.086-15.9,21.846,21.846,0,0,0-15.527-6.711h-.2A21.858,21.858,0,0,0,93.151,94.934V95.2c0,4.426,2.391,8.888,5.033,13.832a85.116,85.116,0,0,1,5.033,10.637,38.229,38.229,0,0,1,2.427,11.726h3.374V107.766a1.49,1.49,0,1,1,2.981,0Zm6,3h-6V131.4h6Zm-11.119,32.3a1.5,1.5,0,0,1,0-3h16.081a1.5,1.5,0,1,1,0,3Z" transform="translate(-33.396 -25.774)" fill="#fff8ea"/>
      </g>
    </g>
  </g>
</svg>
