<svg xmlns="http://www.w3.org/2000/svg" xmlns:xlink="http://www.w3.org/1999/xlink" width="71.95" height="70.368" viewBox="0 0 71.95 70.368">
  <defs>
    <clipPath id="clip-path">
      <rect id="Rectangle_34" data-name="Rectangle 34" width="71.95" height="70.368" fill="none" stroke="#fff8ea" stroke-width="1"/>
    </clipPath>
  </defs>
  <g id="Group_58" data-name="Group 58" style="isolation: isolate">
    <g id="Group_57" data-name="Group 57" clip-path="url(#clip-path)">
      <path id="Path_116" data-name="Path 116" d="M.727,1.439.5,68.647H56.8V1.439Z" transform="translate(0.315 0.911)" fill="none" stroke="#fff8ea" stroke-width="1"/>
      <path id="Path_117" data-name="Path 117" d="M1.849,2.563H56.308V68.152H1.625ZM.235.943,0,69.771H57.927V.943Z" transform="translate(0 0.597)" fill="none" stroke="#fff8ea" stroke-width="1"/>
      <rect id="Rectangle_22" data-name="Rectangle 22" width="46.186" height="2.429" transform="translate(5.668 8.727)" fill="none" stroke="#fff8ea" stroke-width="1"/>
      <rect id="Rectangle_23" data-name="Rectangle 23" width="46.186" height="2.429" transform="translate(5.668 14.395)" fill="none" stroke="#fff8ea" stroke-width="1"/>
      <rect id="Rectangle_24" data-name="Rectangle 24" width="46.186" height="2.43" transform="translate(5.668 20.063)" fill="none" stroke="#fff8ea" stroke-width="1"/>
      <rect id="Rectangle_25" data-name="Rectangle 25" width="46.186" height="2.429" transform="translate(5.668 25.73)" fill="none" stroke="#fff8ea" stroke-width="1"/>
      <rect id="Rectangle_26" data-name="Rectangle 26" width="46.186" height="2.429" transform="translate(5.668 31.398)" fill="none" stroke="#fff8ea" stroke-width="1"/>
      <rect id="Rectangle_27" data-name="Rectangle 27" width="46.186" height="2.43" transform="translate(5.668 37.066)" fill="none" stroke="#fff8ea" stroke-width="1"/>
      <rect id="Rectangle_28" data-name="Rectangle 28" width="46.186" height="2.429" transform="translate(5.668 42.735)" fill="none" stroke="#fff8ea" stroke-width="1"/>
      <rect id="Rectangle_29" data-name="Rectangle 29" width="46.186" height="2.427" transform="translate(5.668 48.405)" fill="none" stroke="#fff8ea" stroke-width="1"/>
      <rect id="Rectangle_30" data-name="Rectangle 30" width="46.186" height="2.427" transform="translate(5.668 54.071)" fill="none" stroke="#fff8ea" stroke-width="1"/>
      <rect id="Rectangle_31" data-name="Rectangle 31" width="46.186" height="2.43" transform="translate(5.668 59.738)" fill="none" stroke="#fff8ea" stroke-width="1"/>
    </g>
  </g>
</svg>
