<svg xmlns="http://www.w3.org/2000/svg" xmlns:xlink="http://www.w3.org/1999/xlink" width="95.221" height="70.664" viewBox="0 0 95.221 70.664">
  <defs>
    <clipPath id="clip-path">
      <rect id="Rectangle_21" data-name="Rectangle 21" width="95.221" height="70.664" fill="#fff8ea"/>
    </clipPath>
  </defs>
  <g id="Group_51" data-name="Group 51" style="isolation: isolate">
    <g id="Group_50" data-name="Group 50" clip-path="url(#clip-path)">
      <path id="Path_114" data-name="Path 114" d="M80.557,59.842a1.61,1.61,0,0,0-1.611,1.611v5.991H12.363V22.737H78.947v17.67a1.611,1.611,0,1,0,3.221,0V21.127a1.611,1.611,0,0,0-1.611-1.611H74.113l-.09-6.62a1.611,1.611,0,0,0-1.611-1.589H30.64L24.734.82a1.61,1.61,0,0,0-1.4-.82H1.611A1.611,1.611,0,0,0,0,1.611V12.918c0,.035.008.069.01.1s-.01.068-.01.1V69.054a1.611,1.611,0,0,0,1.611,1.611h8.767a1.631,1.631,0,0,0,.187-.019,1.629,1.629,0,0,0,.187.019H80.557a1.61,1.61,0,0,0,1.611-1.611v-7.6a1.61,1.61,0,0,0-1.611-1.611M3.211,13.021c0-.035.01-.068.01-.1v-9.7H22.389L28.3,13.708a1.61,1.61,0,0,0,1.4.82,1.626,1.626,0,0,0,.223-.017,1.521,1.521,0,0,0,.164.016H70.824l.067,4.988H10.752a1.611,1.611,0,0,0-1.611,1.611V67.443H3.221V13.124c0-.035-.008-.069-.01-.1" fill="#fff8ea"/>
      <path id="Path_115" data-name="Path 115" d="M233.518,116.855l-4.806-4.806a1.289,1.289,0,0,0-1.822,0l-17.965,17.965a1.288,1.288,0,0,0-.381.488l-3.865,8.671a1.282,1.282,0,0,0,0,1.044s0,.008,0,.012.018.033.026.049a1.281,1.281,0,0,0,.064.12,1.308,1.308,0,0,0,.127.165c.013.014.027.027.041.04a1.257,1.257,0,0,0,.145.127l.029.022a1.279,1.279,0,0,0,1.269.129l8.671-3.865a1.3,1.3,0,0,0,.174-.1l.035-.024a1.264,1.264,0,0,0,.178-.147l18.073-18.072a1.289,1.289,0,0,0,0-1.822M208.4,137.165l1.739-3.9,1.077,1.078h0l0,0h0l1.078,1.078Zm6.137-3.147-1.491-1.492h0l-1.491-1.491L227.8,114.783l2.983,2.983Z" transform="translate(-138.674 -75.701)" fill="#fff8ea"/>
    </g>
  </g>
</svg>
