<svg id="Group_60" data-name="Group 60" xmlns="http://www.w3.org/2000/svg" xmlns:xlink="http://www.w3.org/1999/xlink" width="101.117" height="79.433" viewBox="0 0 101.117 79.433">
  <defs>
    <clipPath id="clip-path">
      <rect id="Rectangle_35" data-name="Rectangle 35" width="101.117" height="79.433" fill="none" stroke="#fff8ea" stroke-width="2"/>
    </clipPath>
  </defs>
  <g id="Group_59" data-name="Group 59" clip-path="url(#clip-path)">
    <path id="Path_133" data-name="Path 133" d="M60.311,0A22.76,22.76,0,0,0,37.867,18.985l-2.791.531A18.849,18.849,0,1,0,14.329,47.4v2.106H10.511l-.017-.171L5.974,47.661H2.808l5,10.408,1.849-.5,1.027-1.677h3.646V79.434H79.841V40.3H74.809A22.752,22.752,0,0,0,60.309,0ZM40.538,34.017A22.84,22.84,0,0,0,45.811,40.3H34.016a18.758,18.758,0,0,0,2.825-5.581ZM73.27,71.525a2.054,2.054,0,1,1-2.054,2.054,2.054,2.054,0,0,1,2.054-2.054" transform="translate(0 0)" fill="none" stroke="#fff8ea" stroke-width="2"/>
    <path id="Path_134" data-name="Path 134" d="M100,19.57a11.5,11.5,0,1,0,11.5,11.5A11.5,11.5,0,0,0,100,19.57m-1.1,3.4a1.863,1.863,0,1,1-1.867,1.858A1.861,1.861,0,0,1,98.9,22.965m5.761,3.5a1.867,1.867,0,1,1-1.867,1.868,1.87,1.87,0,0,1,1.867-1.868M94.5,27.929A1.867,1.867,0,1,1,92.628,29.8,1.861,1.861,0,0,1,94.5,27.929m9.486,5.093a1.863,1.863,0,1,1-1.867,1.858,1.861,1.861,0,0,1,1.867-1.858m-6.89,1.128a1.862,1.862,0,1,1-1.867,1.858,1.861,1.861,0,0,1,1.867-1.858" transform="translate(-40.016 -8.849)" fill="none" stroke="#fff8ea" stroke-width="2"/>
    <path id="Path_135" data-name="Path 135" d="M26.806,34.57a9.313,9.313,0,1,0,9.313,9.313,9.313,9.313,0,0,0-9.313-9.313m-.889,2.748a1.508,1.508,0,1,1-1.511,1.5,1.507,1.507,0,0,1,1.511-1.5m4.665,2.829a1.512,1.512,0,1,1-1.512,1.511,1.513,1.513,0,0,1,1.512-1.511m-8.23,1.188a1.512,1.512,0,1,1-1.512,1.512,1.507,1.507,0,0,1,1.512-1.512m7.68,4.123a1.508,1.508,0,1,1-1.512,1.5,1.506,1.506,0,0,1,1.512-1.5m-5.578.913a1.508,1.508,0,1,1-1.512,1.5,1.506,1.506,0,0,1,1.512-1.5" transform="translate(-7.91 -15.632)" fill="none" stroke="#fff8ea" stroke-width="2"/>
    <path id="Path_136" data-name="Path 136" d="M167.584,69.16l-11.556,7H146.99V93.606h9.039l11.556,7Z" transform="translate(-66.467 -31.274)" fill="none" stroke="#fff8ea" stroke-width="2"/>
  </g>
</svg>
