<svg xmlns="http://www.w3.org/2000/svg" xmlns:xlink="http://www.w3.org/1999/xlink" width="82.802" height="82.302" viewBox="0 0 82.802 82.302">
  <defs>
    <clipPath id="clip-path">
      <path id="Path_112" data-name="Path 112" d="M59.073,78.039a4.708,4.708,0,0,1-1.927.5,7.43,7.43,0,0,0-2.29.521c-1.692.707-5.905,1.07-6.518.561a1.255,1.255,0,0,0-1.261-.106l-.784.29.825.581.825.581-1.027-.056a4.563,4.563,0,0,0-1.641.2c-.431.182-.584.119-.514-.211.058-.275-.114-.413-.414-.333a5.268,5.268,0,0,1-3.749-.09c-.957-.383-1.427-.432-1.591-.167-.154.249-.886.3-2.155.142a8.16,8.16,0,0,0-3.717.01c-.61.119-1.034.339-.941.489.153.248,3.216.85,5.817,1.144h0c5,.564,12.394-.105,16.439-1.487,2.978-1.018,6.336-2.513,6.336-2.822,0-.165-.126-.245-.339-.245a3.188,3.188,0,0,0-1.373.493m-7.982-2.1c.345.345.672.26,1.132-.295.355-.428.309-.514-.28-.514-.75,0-1.217.443-.852.808m-27.412-10.4c.148.742.074,1.029-.265,1.033-.371,0-.362.076.043.337.431.278.434.333.023.337-.834.009-3.46,1.419-3.257,1.749.323.522,1.189.351,2.325-.458a6.719,6.719,0,0,1,1.251-.773,4.187,4.187,0,0,0,.973-.568l.8-.566-.716-.716a2.488,2.488,0,0,1-.716-1.059.339.339,0,0,0-.334-.343c-.188,0-.244.448-.128,1.027m-.565-5.548a1.363,1.363,0,0,0,.411.685c.655.655,1.005.476.537-.274-.272-.435-.577-.685-.765-.685-.111,0-.182.087-.182.274m7.534-1.158a.544.544,0,0,0,.542.542c.6,0,.5-.737-.136-.949a.308.308,0,0,0-.1-.017c-.176,0-.308.17-.308.423m1.2-.48a.394.394,0,0,0,.534.151c.475-.293.386-.5-.215-.5-.293,0-.437.157-.319.348m-7.167-.911c.119.309.353.563.522.563.39,0,.382-.377-.023-1.018-.147-.232-.291-.334-.4-.334-.192,0-.28.314-.1.789m-3.535-4.507c-.6.5-.543,1.075.082.836.282-.108.514-.048.514.135a.322.322,0,0,0,.31.332c.171,0,.134-.374-.082-.83-.2-.414-.356-.6-.537-.6a.469.469,0,0,0-.287.132m-4.384,9.5c-.124-.2-.152-.439-.062-.528s.254.074.366.365c.129.337.125.519.037.519-.07,0-.191-.114-.34-.356M7.45,52.664a1.386,1.386,0,0,0-.257.827c0,.4-.24.542-.775.468-.516-.072-.771.07-.771.428,0,.294-.149.535-.332.535s-.247.219-.145.487-.114.649-.514.863c-.8.426-.774.516.96,4.185.842,1.781,1.3,2.361,2.107,2.641.614.214.947.226.825.03-.112-.181,0-.323.245-.317a4.445,4.445,0,0,1,2.785,1.96c.447.605.874,1.042.95.97a9.181,9.181,0,0,1,1.851,1.865h0a12.6,12.6,0,0,0,1.969,2.019c.512.047.24-.634-.445-1.114s-.692-.494.171-.711c.522-.131.873-.461.873-.821a2.743,2.743,0,0,1,.479-1.286,4.755,4.755,0,0,0-.281-4.235,2.186,2.186,0,0,1-.54-.841c0-.281-.544-.988-1.576-2.046a6.2,6.2,0,0,1-1.14-2.022c-.231-.706-.55-1.284-.708-1.284s-.39-.462-.514-1.027c-.317-1.444-.963-1.3-.791.177.077.662.056,1.158-.048,1.1s-.613-.315-1.131-.574-.942-.666-.942-.9-.462-.533-1.027-.657-1.027-.393-1.027-.6c0-.128-.044-.2-.111-.2a.217.217,0,0,0-.141.077m12.843-.537a.889.889,0,0,1-.874.143c-.344-.132-.443-.064-.283.193.2.323.77.35,1.857.088.058-.014,0-.193-.124-.4a.332.332,0,0,0-.269-.195.465.465,0,0,0-.306.168M5.54,50.665a1.4,1.4,0,0,0-.712.689c-.109.285.022.487.316.487.277,0,.5-.065.5-.143a3.544,3.544,0,0,1,.209-.689c.107-.278.092-.408-.06-.408a.778.778,0,0,0-.256.063m1.819-.023c-.188.116-.342.28-.342.363s.154.151.342.151a.354.354,0,0,0,.343-.362c0-.133-.069-.208-.171-.208a.337.337,0,0,0-.172.057m10.617.514a1.4,1.4,0,0,0,1.125.678c.751-.008.75-.015-.1-.678a2.727,2.727,0,0,0-1.1-.647c-.177,0-.158.216.073.647M8.181,49.878c-.113.113-.085.4.063.64.216.349.3.349.412,0,.128-.384-.043-.741-.269-.741a.3.3,0,0,0-.206.1M1.447,48.261c-.756.29-.266,1.284,1.043,2.116a4.806,4.806,0,0,1,1.227,1.069c.251.4.343.4.594.008.459-.725.376-.892-.563-1.127-.526-.132-.776-.371-.632-.6.134-.217.085-.291-.111-.169-.427.264-1.57-.923-1.223-1.269.073-.072.063-.109-.009-.109a1.082,1.082,0,0,0-.326.086m36.107-.187c-.063.188.143.342.457.342s.506-.193.428-.428a.433.433,0,0,0-.4-.335.545.545,0,0,0-.483.42m-28.8-.485c.016.4.1.48.207.207a.691.691,0,0,0-.027-.657.09.09,0,0,0-.061-.032c-.081,0-.131.189-.12.481m-2.3-.514c-.024.173-.062.468-.086.656s-.36.343-.748.343-.61.154-.494.343a1.5,1.5,0,0,0,1.084.342c.635,0,.819-.14.675-.514-.119-.31,0-.514.3-.514s.414.2.3.5q-.193.5.977,1.062c1.166.556,2.314,1.859,1.638,1.859a.345.345,0,0,0-.345.343c0,.188.308.342.685.342s.685.154.685.342.308.342.685.342.685-.154.685-.342c0-.572.96-.383,1.436.283a4.058,4.058,0,0,0,1.125,1h0c1.166.643,1.234.1.113-.9-1.147-1.025-1.074-1.945.124-1.564a1.279,1.279,0,0,0,1.359-.5c.666-.716.606-1.4-.125-1.4-.209,0-.278.1-.154.225.416.416-.528,1.144-1.481,1.144a2.039,2.039,0,0,1-1.392-.541,9.127,9.127,0,0,0-2.124-1.389c-1.344-.681-1.774-.767-2.176-.433-.38.315-.6.32-.9.02-.218-.218-.27-.4-.115-.4s.091-.229-.142-.51-.56-.426-.727-.322-.3,0-.3-.232c0-.148-.051-.211-.122-.211-.149,0-.387.275-.434.619m-.825-1.682a3.266,3.266,0,0,0-.013,2.253h0c.014.047.1.086.2.086a3.251,3.251,0,0,0,.161-1.456c-.005-.758-.045-1.1-.15-1.1-.049,0-.113.074-.194.213M20.2,43.9c.471.214.856.625.856.911h0c0,.287.154.521.343.521.4,0,.445-.7.08-1.2a5.386,5.386,0,0,0-1.959-1.2c-.506,0-.065.626.68.965M1.852,43.744c-.669,1.648-.63,3.987.066,3.987a2.71,2.71,0,0,1,.561.066c.141.036.354-.388.473-.942.182-.849.223-.76.257.562a4.758,4.758,0,0,0,.274,1.8c.128.129.341.06.472-.153.168-.272.294-.248.425.081.145.366.19.356.207-.047a2.081,2.081,0,0,0-.293-1.011.891.891,0,0,1-.123-.807c.105-.17.324-.1.486.155.227.358.3.364.3.025,0-.241-.342-.578-.765-.749l-.771-.31.771-.022c.424-.012.771-.231.771-.488,0-.306-.279-.413-.816-.31-.915.175-1.311-.272-1.408-1.586-.071-.962-.13-1.431-.263-1.431s-.307.4-.623,1.176M.181,42.073c-.262.162-.257.309.135,3.518.144,1.177.417,2.14.607,2.14s.262-.347.159-.771S.789,45.23.66,44.057A4.493,4.493,0,0,0,.2,42.068a.033.033,0,0,0-.018.005m4.1-.7c0,.294-.159.534-.354.534-.24,0-.237.221.012.685.2.377.515.685.7.685.438,0,.427-1.955-.012-2.226a.24.24,0,0,0-.125-.04c-.127,0-.217.138-.217.362M2.566,40.54a2.215,2.215,0,0,0-.337.962c0,.247.149.353.337.237a1.267,1.267,0,0,0,.337-.962c0-.347-.024-.511-.092-.511-.051,0-.129.094-.246.274m-.013-3.891c-.495.494-.023,3.293.52,3.085q.414-.159.256.666h0c-.179.934.307,1.085.96.3.365-.439.287-.682-.472-1.474a3.055,3.055,0,0,1-.908-1.94c0-.5-.058-.737-.184-.737a.276.276,0,0,0-.172.1m41.042-2c-.32.32-.228.411.411.411s.731-.091.411-.411a.472.472,0,0,0-.822,0m6.85,0c-.32.32-.228.411.411.411s.73-.091.411-.411a.472.472,0,0,0-.822,0m-3.558-.489a.537.537,0,0,1-.683.328c-.267-.1-.485-.008-.485.21q0,.4,1.456.229c.8-.092,1.734-.177,2.075-.189s.521-.181.4-.384a1.082,1.082,0,0,0-.962-.267,2.117,2.117,0,0,1-1.168-.173.463.463,0,0,0-.244-.078.428.428,0,0,0-.384.323m-7.193-2.573c-.991.451-1.075.929-.164.929.363,0,.585-.121.494-.269s.16-.269.559-.269c.461,0,.636.144.481.4s-.094.3.143.156a1.8,1.8,0,0,1,1.337.276,4.457,4.457,0,0,0,1.549.529c1.181.027.564-.517-1.488-1.313a6.669,6.669,0,0,0-2.174-.6,1.7,1.7,0,0,0-.737.168m33.424-3.357c0,.2.154.267.342.151s.342-.28.342-.363-.154-.151-.342-.151a.354.354,0,0,0-.342.363M4.431,22.448A18.058,18.058,0,0,0,2.223,28.07c0,.423-.144.82-.321.883-.7.25-1.914,8.084-1.778,11.5h0c.024.612.2,1.113.387,1.113.367,0,.372-.043.411-3.425.029-2.5.381-3.494,1.135-3.2.585.224.736-1.067.166-1.419-.638-.394-.31-4.623.359-4.623.153,0,.328.347.388.771.094.66.22.56.88-.7.786-1.495,1.047-3.842.428-3.842-.188,0-.348.424-.353.942a3.173,3.173,0,0,1-.514,1.607c-.42.555-.5.573-.5.108a5.248,5.248,0,0,1,1.407-3.107,1.231,1.231,0,0,0,.455-1.332c-.147-.464-.1-.623.153-.469s.3.029.161-.326c-.1-.248-.171-.368-.278-.368s-.206.09-.375.265m69.713-.915c-.189.116-.343.279-.343.363s.154.151.343.151a.354.354,0,0,0,.342-.362c0-.133-.069-.208-.171-.208a.333.333,0,0,0-.171.057M7.7,19.82c-.188.117-.342.28-.342.363s.154.151.342.151a.354.354,0,0,0,.343-.363c0-.133-.069-.208-.171-.208a.335.335,0,0,0-.172.057m-1.37-.342a.93.93,0,0,0-.342.725c0,.282.154.419.342.3a.931.931,0,0,0,.342-.725c0-.214-.088-.344-.213-.344a.249.249,0,0,0-.13.042M9.416,18.3c0,.2.154.267.343.151s.342-.279.342-.363-.154-.151-.342-.151a.354.354,0,0,0-.343.363m69.863,9.1c0-.214.16-.194.405.051.223.223.326.485.228.582a.211.211,0,0,1-.153.066c-.221,0-.481-.333-.481-.7m-.725-.3c.037-.237-.38-.315-2.159-.409a.931.931,0,0,1-.81-.489c-.223-.669.644-2.1,1.27-2.1.47,0,1.642,2.03,1.928,3.336h0c.052.236.031.428-.047.428-.156,0-.244-.374-.181-.771M73.007,14.724c.178.463.1.54-.384.356-.444-.17-.56-.1-.423.254a.514.514,0,0,1-.278.668c-.58.223-.277,1.59.352,1.59a.756.756,0,0,0,.605-.6c.118-.451.166-.409.2.171.059,1.152.1,1.246.691,1.74.5.413.491.438-.052.268-.766-.241-.762-.221.257,1.16a4.316,4.316,0,0,1,.856,1.788c0,.584-.07.591-1.008.106-1.09-.564-1.4-.356-1.358.9a12.026,12.026,0,0,1-.221,2.115c-.222,1.162-.178,1.3.39,1.2.352-.062.663.081.691.316s.07.524.093.641.313,0,.642-.257c.543-.426.555-.414.129.129-.259.329-.35.6-.2.6s.011.282-.3.627-.481.713-.376.819c.237.237-1.6,1.579-2.073,1.513-.188-.026-.344.183-.346.466A5.473,5.473,0,0,1,70.226,33a5.162,5.162,0,0,0-.583,2.34c.04.628-.049,1.066-.2.975s-.27.859-.27,2.112c0,1.629.121,2.255.424,2.195.233-.046.638.429.9,1.056.672,1.609,2.147,2.715,3.006,2.256a1.9,1.9,0,0,1,1.266-.162,1.634,1.634,0,0,0,1.272-.313c.865-.654,1.523-.66,1.523-.012,0,.293.308.514.715.514.646,0,.692.135.482,1.38a9.164,9.164,0,0,0,.171,3.064c.34,1.418.32,1.836-.131,2.644a17.1,17.1,0,0,0-.847,4.727,38.3,38.3,0,0,1-.562,4.538h0c-.434,1.337.128.837,1.006-.9a4.129,4.129,0,0,1,1.52-1.844c.741-.194,1.408-2.063,1.412-3.951a19.606,19.606,0,0,1,.485-3.253,38.048,38.048,0,0,0,.709-13c-.276-1.927-.6-3.966-.719-4.531s-.248-1.314-.284-1.665a1.486,1.486,0,0,0-.7-.99c-.517-.289-.591-.251-.414.209.118.309.158.561.089.561a12.528,12.528,0,0,1-1.564-2.588c0-.4.729-.076,1.356.6.45.483.7.584.7.284,0-1.167-3.633-9.253-4.157-9.253-.137,0-.353-.327-.48-.726-.286-.9-2.284-3.769-2.486-3.567-.081.081.2.706.618,1.387.633,1.025.7,1.369.371,1.987-.225.425-.321.487-.223.144a4.181,4.181,0,0,0-.672-2.117,3.854,3.854,0,0,1-.653-2.016.618.618,0,0,0-.169-.726A.3.3,0,0,0,73,14.3c-.1,0-.1.146.006.422m-63.634.025c-.268.33-.3.475-.066.337a.449.449,0,0,1,.615.1c.136.22.44.2.858-.063.356-.222.571-.527.478-.678a.707.707,0,0,0-.629-.272,1.706,1.706,0,0,0-1.256.577m29.833-1.777a.728.728,0,0,0-.339.531c0,.493.245.384.473-.209.089-.231.077-.365-.018-.365a.237.237,0,0,0-.117.043m-4.9-.848c-.22.006-.1.237.265.514.755.571,1.219.646,1.219.2,0-.322-.8-.711-1.441-.711H34.3m-4.609.124c.243.263.574.4.735.3s.084-.311-.171-.472a1.574,1.574,0,0,0-.682-.291c-.173,0-.16.163.118.464M54.5,9.165c-.928.1-1.7.552-.944.552.231,0,.326.152.21.339s.013.253.3.143a1.528,1.528,0,0,1,1.131.165c.782.455,1.717.481,1.981.054.276-.447-1.4-1.262-2.483-1.262a1.86,1.86,0,0,0-.2.01m-9.379,8.564a.689.689,0,0,1,.656-.027c.273.109.192.19-.207.207l-.084,0c-.308,0-.47-.077-.366-.182m-9.459-.558c-1.449-.063-1.47-.081-.783-.637.634-.514.788-.52,1.49-.06a2.832,2.832,0,0,1,.783.638h0a1.95,1.95,0,0,1-.806.075c-.205,0-.438,0-.684-.016m11.175-.019a1.47,1.47,0,0,1-.069-1.3c.249-.393.306-.4.31-.017,0,.272.219.383.519.268.282-.109.508-.086.5.049a4.2,4.2,0,0,1-.45,1.035l-.438.79Zm-2.428-1.521c.249-.3.536-.321,1-.074a2.553,2.553,0,0,1,.649.421,3.465,3.465,0,0,1-1,.074c-.751,0-.912-.1-.649-.421M40.066,15.2c-.117-.188.029-.342.322-.342s.534.154.534.342a.334.334,0,0,1-.322.343.734.734,0,0,1-.534-.343m1.541,0c0-.188.068-.342.151-.342s.246.154.362.342.049.343-.151.343a.354.354,0,0,1-.363-.343M32.534,12.46c-.12-.194.017-.252.322-.135s.531.265.531.339c0,.1-.084.143-.2.143a.862.862,0,0,1-.652-.347m9.758.372c0-.356.651-.871.844-.667.063.066-.1.318-.365.561a.693.693,0,0,1-.381.218c-.061,0-.1-.037-.1-.112M27.414,11.4c.106-.171-.01-.316-.256-.323-.605-.016,1.128-.989,1.778-1,.418-.006.427.048.049.287-.3.19-.338.373-.109.514a.415.415,0,0,0,.57-.128A.758.758,0,0,1,30,10.4c.188,0,.254.143.145.319a.372.372,0,0,0,.115.512c.172.106.4-.037.509-.319.255-.664.9-.663.9,0a.469.469,0,0,1-.4.514c-.22,0-.284.115-.143.256s.475-.043.742-.408.486-.473.486-.24a2.84,2.84,0,0,1-.942,1.258c-.8.705-.863.887-.428,1.177.4.267.286.343-.514.343-.669,0-.872-.1-.583-.282.358-.227.348-.362-.052-.694-.359-.3-.532-.305-.625-.028s-.393.263-1.08-.049l-.951-.433.789-.472.79-.472-.771.161a1.661,1.661,0,0,1-.331.039c-.216,0-.322-.069-.248-.189m2.891-1.489c0-.083.154-.246.342-.363s.342-.048.342.151a.354.354,0,0,1-.342.362c-.188,0-.342-.068-.342-.151m4.241.135c.683-.811,1.015-.975,1.487-.732a1.566,1.566,0,0,0,1.036.159c.236-.084.428.013.428.218s.231.371.514.371c.458,0,.665.408.428.841-.047.086.2.368.556.626a1.911,1.911,0,0,1,.642,1.385c0,.7.17.918.728.926.661.01.673.043.126.361a1.118,1.118,0,0,1-1,.1c-.258-.159-.328-.065-.2.268.167.436,0,.462-1.088.171a4.028,4.028,0,0,0-1.9-.106c-.59.226-.589.259.033.714.358.262.536.592.395.733s-.256.051-.256-.2-.1-.355-.225-.231-.419.065-.654-.131c-.3-.246-.5-.246-.649,0-.339.548-1.136-.363-.948-1.083.165-.633,1.449-.869,1.449-.267a.354.354,0,0,0,.363.342c.2,0,.274-.143.166-.319a.433.433,0,0,1,.2-.567c.25-.155.309-.1.157.148-.143.232-.032.4.269.4a.912.912,0,0,0,.71-.318c.255-.413-.927-.786-1.634-.516-.342.131-.9-.152-1.5-.757-.526-.532-1.067-.933-1.2-.891s-.157-.152-.05-.431.319-.431.47-.338a.1.1,0,0,0,.056.014c.2,0,.663-.371,1.1-.888m-8.607-.5a2.58,2.58,0,0,1,1.623-.687c.74-.018.91.074.614.332-.225.2-.62.587-.878.87s-.372.321-.252.086c.42-.83-.2-1.182-.971-.547a5.3,5.3,0,0,1-.558.442,3.146,3.146,0,0,1,.422-.494m2.218-2.45a1.961,1.961,0,0,1,1.027-.013c.333.087.143.164-.422.17h-.076c-.513,0-.751-.069-.53-.158m3.083-.16c.232-.234.509-.339.614-.234h0c.106.105-.085.3-.422.425a1.443,1.443,0,0,1-.37.11c-.092,0-.027-.1.178-.3m3.973-.486c0-.274.128-.5.285-.5a.306.306,0,0,1,.285.322.658.658,0,0,1-.285.5.181.181,0,0,1-.095.03c-.111,0-.191-.136-.191-.352M30.99,5.591c-.375-.254-.237-.286.514-.118a5.384,5.384,0,0,1,1.17.353h0c.114.1.017.14-.181.14a3.623,3.623,0,0,1-1.5-.375m2.955.065c-.539-.6-.538-.666.013-1.113.37-.3.495-.321.335-.056A1.326,1.326,0,0,0,34.411,5.6c.236.442.305.663.216.663s-.315-.2-.682-.607m-5.739-.961c-.42-.509-.4-.533.215-.218a1.948,1.948,0,0,0,1.2.2c.457-.134.457-.111,0,.212a1.39,1.39,0,0,1-.7.339c-.222,0-.409-.171-.709-.535m2.5-.073c-.368-.233-.351-.33.085-.5.343-.132.543-.023.543.295s-.006.469-.115.469a1.484,1.484,0,0,1-.513-.266m1.484-.385c-.116-.189-.048-.342.151-.342a.354.354,0,0,1,.363.342c0,.188-.068.343-.151.343s-.246-.154-.363-.343m3.938-1.059c0-1.131.25-1.253.86-.418a2.612,2.612,0,0,0,1.87.651c1.484.076,2.862.827,1.516.827a1.672,1.672,0,0,0-1.024.339c-.224.224-.6.154-1.117-.206A2.068,2.068,0,0,0,36.791,4a1.217,1.217,0,0,1-.3.048c-.295,0-.369-.229-.369-.869m5.23-2.23A.689.689,0,0,1,42.014.92h0c.273.109.192.191-.207.207l-.083,0c-.308,0-.471-.077-.366-.182M41.093,0C36,.009,34.379.14,31.774.752A32.5,32.5,0,0,0,19.688,5.9c-1.038.714-1.084.8-.342.633,1.669-.372,4.11-1.352,4.11-1.649,0-.166.31-.3.69-.3a3.424,3.424,0,0,0,1.284-.3,24.26,24.26,0,0,1,3.677-1.288c.377-.086.117.094-.578.4-.832.366-1.2.722-1.076,1.041.109.285-.024.486-.322.486-.619,0-1.467.952-1.139,1.28.129.13.505.067.835-.139.486-.3.608-.256.647.249s-.178.608-1.215.538a15.375,15.375,0,0,0-3.316.351,21.213,21.213,0,0,1-3.028.449c-1.226.015-3.591,1.648-3.862,2.665a2.242,2.242,0,0,1-1.085,1.2c-1.067.521-1.533,1.512-.549,1.169.355-.124.081.276-.609.887a4.735,4.735,0,0,0-1.372,1.785,3.009,3.009,0,0,1-1.214,1.412c-.6.407-1.006.83-.9.94s.914-.292,1.784-.894a9.438,9.438,0,0,1,1.853-1.1.884.884,0,0,0,.537-.437,7.636,7.636,0,0,1,3.547-1.793c.611,0,.779.507.653,1.969-.036.424.094.771.289.771s.355-.24.355-.534.165-.432.37-.305.278.6.165,1.048-.054.819.144.819c.522,0,.388,1.35-.3,3.051a5.223,5.223,0,0,0,.853,5.405,3.011,3.011,0,0,1,.825,1.5,1.076,1.076,0,0,0,.356.835.764.764,0,0,1,.161.836.607.607,0,0,0,.328.816.818.818,0,0,1,.524.672,2.013,2.013,0,0,0,.685,1.091c.6.54.685.549.685.073a.992.992,0,0,0-.366-.773.6.6,0,0,1-.182-.705c.1-.263.046-.479-.123-.479s-.548-.5-.844-1.113l-.537-1.113,1.041,1.2c.572.659,1.15,1.353,1.283,1.541.981,1.388,2.3,2.725,2.608,2.649.205-.05.088.133-.261.405-.833.652-.438,1.226.845,1.226.566,0,.937.147.825.327-.36.582,1.475,1.455,3.26,1.552a3.943,3.943,0,0,1,2.487.783,4.821,4.821,0,0,0,1.949.934c1.294.265,2.74,1.381,2.74,2.115,0,.25.143.454.318.454a1.505,1.505,0,0,1,.772.454c.642.642,2.7,1.022,2.588.479a.339.339,0,0,1,.346-.419.442.442,0,0,1,.461.342.764.764,0,0,0,.309.514,2.849,2.849,0,0,1,.386,1.443,2.145,2.145,0,0,1-.984,2.248c-1.522,1.359-2.151,4.143-1.23,5.446a23.338,23.338,0,0,1,2.637,5.318,3.462,3.462,0,0,0,1.5,1.253q2.44,1.245,2.022,3.53a39.461,39.461,0,0,0-.644,4.908,10.969,10.969,0,0,1-.442,2.226,27.29,27.29,0,0,0-.679,3.254A4.065,4.065,0,0,1,45.6,73.5c-.277.177-.255.253.076.257s.368.132.125.434c-.557.691.131,1.913,1.361,2.419h0c1.031.424,2.325.41,2.325-.024,0-.1-.27-.389-.6-.645-.562-.437-.547-.51.238-1.175.588-.5.716-.784.428-.962-.272-.168.215-.793,1.451-1.86a10.4,10.4,0,0,1,2.184-1.606c.533,0,1.271-1.09,1.164-1.72-.075-.443.094-.554.685-.45.762.134,2.595-1.325,4.276-3.406a7.883,7.883,0,0,1,1.559-1.369c.518-.333.942-.821.942-1.085s.5-.648,1.113-.855a6.2,6.2,0,0,0,3.142-4A9.235,9.235,0,0,1,67.823,54.6c1.074-1.259,1.524-2.091,1.524-2.821,0-.75-.133-.985-.482-.851a1.212,1.212,0,0,1-1.081-.477,2.017,2.017,0,0,0-1.219-.662,10.766,10.766,0,0,1-2.793-1.195c-1.763-.969-2.265-1.115-2.657-.771-.266.233-.208.093.129-.313.4-.482.486-.815.248-.962a1.045,1.045,0,0,1-.365-.814c0-.8-1.176-1.747-2.5-2.009s-3.649-2.1-3.657-2.889c0-.309-.2-.554-.434-.545-1.173.043-1.65-.12-1.423-.488.153-.247.094-.3-.156-.147a.433.433,0,0,0-.2.567c.227.367-.046.393-1.124.1-.422-.113-.668-.366-.546-.562s.07-.264-.114-.15a1.791,1.791,0,0,1-1.252-.269c-.5-.262-.917-.331-.917-.154a.345.345,0,0,1-.363.322c-.2,0-.251-.18-.115-.4.174-.281.052-.323-.408-.142a9.425,9.425,0,0,1-1.306.391,3.039,3.039,0,0,0-1.3.827c-.749.8-.789.811-1.67.34a1.289,1.289,0,0,0-1.323,0c-1.377.737-2.175-.286-2.141-2.744.02-1.456-.4-1.7-2.52-1.466-1.071.118-1.225.061-.9-.331.216-.26.306-.561.2-.667s.055-.675.359-1.263c.618-1.2.475-1.73-.418-1.559-.329.063-.774.126-.989.141s-.483.392-.595.839a1.371,1.371,0,0,1-1.232,1.018c-1.409.282-1.919.02-2.55-1.309-.678-1.428-.686-2.557-.027-3.5.751-1.073,2.835-2.259,3.61-2.057.432.113.671,0,.671-.306,0-.524.686-.6,2.369-.265a1.867,1.867,0,0,1,1.531,1.284c.525,1.257,1.426,2.107,1.723,1.626a2.729,2.729,0,0,0-.807-2.258c-.688-.425-.373-1.828.593-2.641,1.415-1.191,1.531-1.537.861-2.585-.564-.883-.565-.917-.014-.481.5.4.595.4.6,0a3.189,3.189,0,0,1,.677-1.326A3.161,3.161,0,0,0,44,19.252c.006-.463.259-.533,1.378-.383.854.115,1.37.047,1.37-.18,0-.2.347-.413.771-.473.488-.069.753-.329.723-.709-.056-.706,1.428-.855,1.7-.171.118.294.183.267.2-.086.029-.457.069-.457.364,0s.333.44.337-.048a2.746,2.746,0,0,0-.706-1.37c-.391-.445-.613-.616-.494-.38.409.805-.428.43-1-.451-.825-1.258-1.718-2.092-2.1-1.963-.183.061-.937-.507-1.675-1.263-1.459-1.494-1.779-1.637-1.948-.872-.085.387-.464.264-1.652-.539A3.813,3.813,0,0,0,38.8,9.458c-.508.074-.852.017-.763-.125s-.111-.411-.442-.6c-.394-.22-.6-.751-.607-1.533,0-.826.112-1.1.37-.886.206.171.475.209.6.085s.225.042.225.369c0,.437.18.537.683.377s.634-.09.487.293a1.4,1.4,0,0,1-.7.7c-.639.245-.279.885.5.884a6.79,6.79,0,0,1,2.045.771c1.245.656,1.512.7,1.775.274a.911.911,0,0,0,.084-.856,1.615,1.615,0,0,1-.128-.951c.106-.644-2.346-3.328-3.084-3.376-.25-.016,0-.166.557-.332a1.421,1.421,0,0,1,1.568.2,1.9,1.9,0,0,0,.92.5c.2,0,.453.231.562.514a.836.836,0,0,0,.711.514c.289,0,.437.2.338.459a.906.906,0,0,0,.349.9c.289.24.426.6.305.793s-.056.255.146.13.961.362,1.687,1.082c1.32,1.307,3.343,2.538,3.656,2.225a3.038,3.038,0,0,0-.286-1.445c-.565-1.6-.325-2.993.557-3.224.587-.154.616-.264.226-.887-.245-.392-.574-.712-.733-.712A7.673,7.673,0,0,1,48.637,4.4c-1.789-1.466-4.555-2.909-5.143-2.683a.5.5,0,0,1-.619-.329c-.159-.415.382-.477,3.367-.391a25.356,25.356,0,0,1,3.843.28.833.833,0,0,0,.748-.108C51.836.547,47.324,0,41.268,0h-.176" transform="translate(0 0)" fill="#fff8ea"/>
    </clipPath>
  </defs>
  <g id="Group_47" data-name="Group 47" transform="translate(0)" style="isolation: isolate">
    <g id="Group_46" data-name="Group 46" transform="translate(0 0)" clip-path="url(#clip-path)">
      <rect id="Rectangle_19" data-name="Rectangle 19" width="83.15" height="82.666" transform="translate(-0.082 0)" fill="#fff8ea"/>
    </g>
  </g>
</svg>
