<svg xmlns="http://www.w3.org/2000/svg" width="244.387" height="228.572" viewBox="0 0 244.387 228.572">
  <g id="video-camera" transform="translate(0 -16.567)">
    <path id="Path_25" data-name="Path 25" d="M309.688,172.075A11.487,11.487,0,1,0,298.2,160.587,11.5,11.5,0,0,0,309.688,172.075Zm0-15.815a4.328,4.328,0,1,1-4.327,4.327A4.333,4.333,0,0,1,309.688,156.26Z" transform="translate(-155.864 -69.273)" fill="#fff8ea"/>
    <path id="Path_26" data-name="Path 26" d="M86.413,209.162a3.58,3.58,0,0,0-3.58,3.58v20.517a3.58,3.58,0,0,0,3.58,3.58h79.076a3.58,3.58,0,0,0,3.58-3.58V185.813a3.58,3.58,0,0,0-3.58-3.58H86.413a3.58,3.58,0,0,0-3.58,3.58v12.609a3.58,3.58,0,0,0,7.16,0v-9.029h71.916v40.286H89.993V212.742A3.58,3.58,0,0,0,86.413,209.162Z" transform="translate(-43.295 -86.59)" fill="#fff8ea"/>
    <path id="Path_27" data-name="Path 27" d="M301.78,288.793h15.815a3.58,3.58,0,0,0,0-7.16H301.78a3.58,3.58,0,0,0,0,7.16Z" transform="translate(-155.864 -138.545)" fill="#fff8ea"/>
    <path id="Path_28" data-name="Path 28" d="M236.854,79.827H224.992a3.564,3.564,0,0,0-.357.018c-.087.009-.171.023-.256.038-.031.005-.061.008-.091.014-.1.02-.2.046-.3.074l-.043.011c-.1.03-.2.066-.29.1l-.039.014c-.09.038-.178.08-.263.125-.018.009-.036.016-.053.026-.08.042-.156.09-.232.138-.023.014-.047.027-.069.042-.072.048-.141.1-.209.155-.024.019-.049.035-.072.054q-.135.112-.26.235L199.787,103.55H189.034V83.407a19.417,19.417,0,0,0-19.395-19.395H141.589V47.45h8.655v.374a7.543,7.543,0,0,0,7.534,7.534h35.584A19.4,19.4,0,0,0,212.749,35.42a19.7,19.7,0,0,0-19.717-18.853H157.778a7.542,7.542,0,0,0-7.534,7.534v.374h-9.23A11.5,11.5,0,0,0,130.1,16.567H77.867a11.425,11.425,0,0,0-10.275,6.35L61.449,35.2A11.433,11.433,0,0,0,53.9,32.382H19.395A19.417,19.417,0,0,0,0,51.777V162.483a19.417,19.417,0,0,0,19.395,19.395h7.077a3.58,3.58,0,0,0,0-7.16H19.395A12.249,12.249,0,0,1,7.16,162.483V71.172H169.639a12.249,12.249,0,0,1,12.235,12.235v79.076a12.249,12.249,0,0,1-12.235,12.235H40.792a3.58,3.58,0,0,0,0,7.16H55.353v8.417a7.4,7.4,0,0,0,6.164,7.287l-17.75,42.6a3.58,3.58,0,0,0,3.3,4.957H66.84a3.58,3.58,0,0,0,3.3-2.2L83.03,212.013v29.547a3.58,3.58,0,0,0,3.58,3.58h15.815a3.58,3.58,0,0,0,3.58-3.58V212.013l12.885,30.923a3.579,3.579,0,0,0,3.3,2.2h19.769a3.58,3.58,0,0,0,3.3-4.957l-17.75-42.6a7.4,7.4,0,0,0,6.164-7.287v-8.417h35.958a19.417,19.417,0,0,0,19.395-19.395V142.341h10.753l22.674,22.674a3.47,3.47,0,0,0,.26.235c.023.019.049.035.072.054.068.053.137.106.209.155.022.015.046.028.069.042.076.048.152.1.232.138.017.01.036.017.053.026.086.044.174.087.263.125l.039.014c.095.038.191.074.29.1l.043.011c.1.028.2.054.3.074.03.006.061.009.091.014.085.015.169.03.256.038a3.557,3.557,0,0,0,.357.018h11.861a7.542,7.542,0,0,0,7.534-7.534V87.361a7.542,7.542,0,0,0-7.534-7.533Zm-63.635-56.1h19.814a12.488,12.488,0,0,1,12.56,11.889A12.235,12.235,0,0,1,193.362,48.2H173.22V23.727ZM157.4,43.87V24.1a.374.374,0,0,1,.374-.374h8.281V48.2h-8.281a.374.374,0,0,1-.374-.374ZM141.589,31.634h8.655v8.655h-8.655ZM7.16,64.012V51.777A12.249,12.249,0,0,1,19.395,39.542H53.9a4.307,4.307,0,0,1,3.863,2.376L68.929,64.012Zm111.454,0H76.951l-2.12-4.2L84.967,39.542h33.647ZM134.429,43.87V64.012h-8.655V35.962a3.58,3.58,0,0,0-3.58-3.58H82.754a3.579,3.579,0,0,0-3.2,1.979L70.807,51.852l-4.864-9.627L74,26.119a4.3,4.3,0,0,1,3.871-2.392H130.1a4.332,4.332,0,0,1,4.327,4.327V43.87ZM64.454,237.979H52.442l16.785-40.286H81.24Zm34.391,0H90.189V197.693h8.655Zm3.58-47.445H62.752a.239.239,0,0,1-.239-.239v-8.417h64.008v8.417a.239.239,0,0,1-.239.239H102.425Zm34.168,47.445H124.58l-16.786-40.286h12.013Zm61.1-102.8h-8.655V110.71h8.655Zm23.723,18.66L204.85,137.278V108.613L221.412,92.05Zm15.815,4.689a.374.374,0,0,1-.374.374h-8.281V86.987h8.281a.374.374,0,0,1,.374.374Z" fill="#fff8ea"/>
    <path id="Path_29" data-name="Path 29" d="M131.41,235.325v-3.954a3.58,3.58,0,0,0-7.16,0v3.954a3.58,3.58,0,0,0,7.16,0Z" transform="translate(-64.943 -110.403)" fill="#fff8ea"/>
    <path id="Path_30" data-name="Path 30" d="M172.826,235.325v-3.954a3.58,3.58,0,0,0-7.16,0v3.954a3.58,3.58,0,0,0,7.16,0Z" transform="translate(-86.59 -110.403)" fill="#fff8ea"/>
    <path id="Path_31" data-name="Path 31" d="M214.243,235.325v-3.954a3.58,3.58,0,0,0-7.16,0v3.954a3.58,3.58,0,0,0,7.16,0Z" transform="translate(-108.238 -110.403)" fill="#fff8ea"/>
  </g>
</svg>
