<svg xmlns="http://www.w3.org/2000/svg" width="201.802" height="234.158" viewBox="0 0 201.802 234.158">
  <g id="picture-taking" transform="translate(-6 -0.905)">
    <path id="Path_32" data-name="Path 32" d="M45.642,52.9A11.642,11.642,0,1,0,57.285,64.547,11.657,11.657,0,0,0,45.642,52.9Zm0,15.523a3.881,3.881,0,1,1,3.881-3.881A3.885,3.885,0,0,1,45.642,68.428Z" transform="translate(80.663 143.35)" fill="#fff8ea"/>
    <path id="Path_33" data-name="Path 33" d="M165.113,235.063c14.98,0,27.166-11.863,27.166-26.437V167.081A15.335,15.335,0,0,0,207.8,151.974a14.845,14.845,0,0,0-5.363-11.33,14.649,14.649,0,0,0,0-22.66,14.649,14.649,0,0,0,0-22.66,14.845,14.845,0,0,0,5.363-11.33,15.335,15.335,0,0,0-15.523-15.107V27.342C192.279,12.768,180.093.9,165.113.9H87.5C72.517.9,60.331,12.768,60.331,27.342v51.2a15.684,15.684,0,0,0-7.762-2.1A15.335,15.335,0,0,0,37.046,91.547V124.2a49,49,0,0,1-5.414,22.309A56.494,56.494,0,0,0,25.4,172.2v17.958a16.6,16.6,0,0,1-.893,5.359,16.978,16.978,0,0,1-8.732,9.8l-7.637,3.713A3.765,3.765,0,0,0,6,212.4v18.884a3.829,3.829,0,0,0,3.881,3.777ZM200.041,83.993a7.667,7.667,0,0,1-7.762,7.553H180.637a7.556,7.556,0,1,1,0-15.107h11.642A7.67,7.67,0,0,1,200.041,83.993Zm-29.564,33.991a14.649,14.649,0,0,0,0,22.66,14.845,14.845,0,0,0-5.363,11.33,14.651,14.651,0,0,0,2.158,7.553H83.616v-98.2h85.378V74.106a14.6,14.6,0,0,0,1.482,21.218,14.649,14.649,0,0,0,0,22.66ZM87.5,8.458h77.616c10.7,0,19.4,8.471,19.4,18.884v3.777H68.093V27.342C68.093,16.93,76.8,8.458,87.5,8.458ZM13.762,227.509V214.736l5.5-2.67A24.555,24.555,0,0,0,31.877,197.9a23.948,23.948,0,0,0,1.288-7.742V172.2a49,49,0,0,1,5.414-22.309A56.505,56.505,0,0,0,44.808,124.2V91.547a7.764,7.764,0,0,1,15.523,0V208.626a26,26,0,0,0,8.192,18.884Zm151.352,0H87.5c-10.7,0-19.4-8.471-19.4-18.884V189.742H184.517v18.884C184.517,219.038,175.813,227.509,165.113,227.509Zm19.4-45.321H68.093V38.672H184.517V68.886h-3.881a15.68,15.68,0,0,0-3.881.536V57.556a3.829,3.829,0,0,0-3.881-3.777H79.735a3.829,3.829,0,0,0-3.881,3.777V163.3a3.829,3.829,0,0,0,3.881,3.777h93.139a3.9,3.9,0,0,0,2.511-.952,15.715,15.715,0,0,0,5.251.952h3.881Zm15.523-30.214a7.667,7.667,0,0,1-7.762,7.553H180.637a7.556,7.556,0,1,1,0-15.107h11.642A7.67,7.67,0,0,1,200.041,151.974Zm0-22.66a7.667,7.667,0,0,1-7.762,7.553H180.637a7.556,7.556,0,1,1,0-15.107h11.642A7.67,7.67,0,0,1,200.041,129.314Zm-19.4-15.107a7.556,7.556,0,1,1,0-15.107h11.642a7.556,7.556,0,1,1,0,15.107Z" transform="translate(0)" fill="#fff8ea"/>
    <path id="Path_34" data-name="Path 34" d="M35,4.9H50.523v7.762H35Z" transform="translate(83.544 11.523)" fill="#fff8ea"/>
    <path id="Path_35" data-name="Path 35" d="M35.762,26.667h7.762V18.9H31.881A3.88,3.88,0,0,0,28,22.786V34.428h7.762Z" transform="translate(63.378 49.852)" fill="#fff8ea"/>
    <path id="Path_36" data-name="Path 36" d="M53.642,18.9H42v7.762h7.762v7.762h7.762V22.786A3.882,3.882,0,0,0,53.642,18.9Z" transform="translate(103.709 49.852)" fill="#fff8ea"/>
    <path id="Path_37" data-name="Path 37" d="M35.762,36.9H28V48.547a3.88,3.88,0,0,0,3.881,3.881H43.523V44.667H35.762Z" transform="translate(63.378 99.704)" fill="#fff8ea"/>
    <path id="Path_38" data-name="Path 38" d="M49.762,44.667H42v7.762H53.642a3.88,3.88,0,0,0,3.881-3.881V36.9H49.762Z" transform="translate(103.709 99.704)" fill="#fff8ea"/>
    <path id="Path_39" data-name="Path 39" d="M77.57,57.071V41.547A11.657,11.657,0,0,0,65.927,29.905H42.642A11.657,11.657,0,0,0,31,41.547V57.071a3.88,3.88,0,0,0,3.881,3.881H73.689A3.88,3.88,0,0,0,77.57,57.071ZM69.808,53.19H38.762V41.547a3.885,3.885,0,0,1,3.881-3.881H65.927a3.885,3.885,0,0,1,3.881,3.881Z" transform="translate(72.02 80.078)" fill="#fff8ea"/>
    <path id="Path_40" data-name="Path 40" d="M64.046,43.19V35.428a15.523,15.523,0,0,0-31.046,0V43.19a15.523,15.523,0,0,0,31.046,0Zm-7.762,0a7.762,7.762,0,1,1-15.523,0V35.428a7.762,7.762,0,0,1,15.523,0Z" transform="translate(77.782 52.378)" fill="#fff8ea"/>
  </g>
</svg>
