<svg xmlns="http://www.w3.org/2000/svg" width="17.607" height="17.607" viewBox="0 0 17.607 17.607">
  <g id="iconfinder_social-instagram-new-circle_1164349" transform="translate(-4.916 -5.131)">
    <g id="Group_8" data-name="Group 8" transform="translate(4.916 5.131)">
      <g id="Group_5" data-name="Group 5">
        <path id="Path_4" data-name="Path 4" d="M36.838,41.607h-8.07A4.774,4.774,0,0,1,24,36.838v-8.07A4.774,4.774,0,0,1,28.769,24h8.07a4.774,4.774,0,0,1,4.769,4.769v8.07A4.774,4.774,0,0,1,36.838,41.607Zm-8.07-16.14a3.305,3.305,0,0,0-3.3,3.3v8.07a3.305,3.305,0,0,0,3.3,3.3h8.07a3.305,3.305,0,0,0,3.3-3.3v-8.07a3.305,3.305,0,0,0-3.3-3.3Z" transform="translate(-24 -24)" fill="#99351a"/>
      </g>
      <g id="Group_6" data-name="Group 6" transform="translate(4.402 4.402)">
        <path id="Path_5" data-name="Path 5" d="M48.4,52.8a4.4,4.4,0,1,1,4.4-4.4A4.407,4.407,0,0,1,48.4,52.8Zm0-7.336A2.934,2.934,0,1,0,51.336,48.4,2.938,2.938,0,0,0,48.4,45.467Z" transform="translate(-44 -44)" fill="#99351a"/>
      </g>
      <g id="Group_7" data-name="Group 7" transform="translate(12.472 3.118)">
        <circle id="Ellipse_2" data-name="Ellipse 2" cx="1.009" cy="1.009" r="1.009" fill="#99351a"/>
      </g>
    </g>
  </g>
</svg>
