<svg xmlns="http://www.w3.org/2000/svg" width="18.105" height="17.306" viewBox="0 0 18.105 17.306">
  <g id="Flat_copy" transform="translate(-4.961 -4.563)">
    <path id="Path_3" data-name="Path 3" d="M25.8,24.382V17.688c0-3.587-1.914-5.255-4.468-5.255a3.849,3.849,0,0,0-3.5,1.929V12.707H13.955c.051,1.1,0,11.676,0,11.676h3.881V17.862a2.652,2.652,0,0,1,.128-.946A2.123,2.123,0,0,1,19.954,15.5c1.4,0,1.967,1.07,1.967,2.64v6.247ZM9.866,11.113a2.024,2.024,0,1,0,.025-4.035,2.023,2.023,0,1,0-.049,4.035Zm1.941,13.27V12.707H7.926V24.382Z" transform="translate(-2.735 -2.515)" fill="#99351a"/>
  </g>
</svg>
