<svg xmlns="http://www.w3.org/2000/svg" width="22.016" height="17.892" viewBox="0 0 22.016 17.892">
  <path id="iconfinder_twitter_317720" d="M22.017,5.117a8.965,8.965,0,0,1-2.594.711,4.534,4.534,0,0,0,1.987-2.5,9.045,9.045,0,0,1-2.868,1.1,4.522,4.522,0,0,0-7.7,4.12,12.826,12.826,0,0,1-9.31-4.719,4.524,4.524,0,0,0,1.4,6.031A4.5,4.5,0,0,1,.885,9.293c0,.019,0,.039,0,.056a4.52,4.52,0,0,0,3.623,4.43,4.538,4.538,0,0,1-2.039.078,4.522,4.522,0,0,0,4.218,3.137,9.06,9.06,0,0,1-5.609,1.934A9.128,9.128,0,0,1,0,18.864a12.794,12.794,0,0,0,6.924,2.028A12.764,12.764,0,0,0,19.776,8.041c0-.2-.006-.391-.014-.585A9.163,9.163,0,0,0,22.017,5.117Z" transform="translate(-0.001 -3)" fill="#99351a"/>
</svg>
