<svg xmlns="http://www.w3.org/2000/svg" width="26.157" height="18.398" viewBox="0 0 26.157 18.398">
  <g id="iconfinder_social-youtube-circle_771382" transform="translate(-3.587 -5.445)">
    <path id="Path_6" data-name="Path 6" d="M49.9,39.835a5.653,5.653,0,0,0-1.04-2.6,3.741,3.741,0,0,0-2.621-1.108c-3.659-.265-9.151-.265-9.151-.265h-.012s-5.491,0-9.151.265A3.738,3.738,0,0,0,25.3,37.239a5.653,5.653,0,0,0-1.04,2.6A39.662,39.662,0,0,0,24,44.068v1.985a39.625,39.625,0,0,0,.261,4.233,5.655,5.655,0,0,0,1.04,2.6A4.433,4.433,0,0,0,28.185,54c2.093.2,8.894.263,8.894.263s5.5-.008,9.156-.273a3.742,3.742,0,0,0,2.621-1.109,5.658,5.658,0,0,0,1.04-2.6,39.776,39.776,0,0,0,.26-4.234V44.068a39.61,39.61,0,0,0-.261-4.233M34.047,48.8V40.764L41.774,44.8Z" transform="translate(-20.413 -30.421)" fill="#99351a"/>
  </g>
</svg>
